<svg width="482" height="180" fill="none" xmlns="http://www.w3.org/2000/svg"><path d="m199.842 120.88-6.105-22.494c-.882-3.053-1.443-5.121-1.679-6.207a68.574 68.574 0 0 1-.662-3.461h-.204a180.152 180.152 0 0 1-.966 4.885 70.573 70.573 0 0 1-1.171 4.783l-6.207 22.494h16.994zm-18.927 7.124-5.19 19.542c-.204.611-.425.967-.662 1.069-.238.101-.628.152-1.17.152h-6.615c-.543 0-.882-.084-1.018-.254-.137-.169-.102-.492.102-.967l20.659-67.377c.066-.338.203-.61.406-.814.204-.204.576-.306 1.12-.306h6.004c.473 0 .814.102 1.018.306.203.204.372.476.509.814l20.76 67.377c.067.341.084.595.05.763a.477.477 0 0 1-.254.356.347.347 0 0 1-.254.102h-7.481c-.475 0-.814-.084-1.018-.254-.202-.169-.339-.46-.406-.866l-5.698-19.643h-20.862M233.728 86.174v61.372c0 .475-.102.798-.304.967-.204.17-.51.254-.916.254h-5.902c-.476 0-.816-.084-1.019-.254-.203-.169-.271-.492-.203-.967V80.271c0-.408.084-.695.254-.864.169-.17.492-.29.968-.358h39.383c.405 0 .694.102.864.306.168.204.286.508.356.916v67.275c0 .475-.102.798-.306.967-.203.17-.509.254-.914.254h-5.902c-.478 0-.816-.084-1.019-.254-.204-.169-.271-.492-.204-.967V86.174h-25.136zM290.92 112.229h6.615c4.885.068 8.498-1.034 10.837-3.309 2.34-2.271 3.513-5.885 3.513-10.838 0-4.138-.918-7.14-2.749-9.007-1.832-1.867-5.294-2.833-10.379-2.901h-7.837v26.055zm0 7.123v28.194c0 .475-.101.798-.306.967-.204.17-.508.254-.916.254h-5.903c-.474 0-.814-.084-1.018-.254-.201-.169-.272-.492-.201-.967V80.271c-.071-.408 0-.695.201-.864.204-.17.544-.29 1.018-.358h15.776c7.189 0 12.43 1.442 15.721 4.326 3.291 2.884 4.935 7.617 4.935 14.199-.067 6.717-1.949 12.026-5.647 15.927-3.699 3.904-9.142 5.851-16.333 5.851h-7.327M364.392 142.864v4.682c0 .475-.101.798-.306.967-.204.17-.508.254-.916.254h-31.547c-.475 0-.813-.084-1.017-.254-.204-.169-.272-.492-.204-.967V80.271c0-.408.086-.695.255-.864.169-.17.491-.29.966-.358h31.955c.339 0 .61.102.814.306a.708.708 0 0 1 .204.712l-1.731 5.191c-.136.406-.305.679-.507.814-.205.137-.478.17-.815.102h-22.795v22.594h20.047c.407.068.694.188.866.357.167.171.286.457.354.865v4.681c0 .476-.1.8-.304.968-.204.169-.509.254-.916.254h-20.047v25.75h24.422c.408 0 .694.101.866.305.167.204.287.509.356.916M393.393 86.174l-.203 14.655c-.139 7.059-.425 13.267-.866 18.625-.442 5.362-1.034 9.738-1.781 13.13-1.086 4.953-2.528 8.651-4.324 11.094-1.799 2.442-4.122 4.209-6.971 5.293a32.639 32.639 0 0 1-3.105.864c-1.051.237-2.018.357-2.899.357-.545 0-.934-.086-1.17-.255a1.115 1.115 0 0 1-.459-.661l-1.22-5.292c-.204-.611-.204-1.085 0-1.425.202-.339.541-.543 1.017-.611l1.118-.102c2.986-.27 5.258-1.287 6.818-3.053 1.561-1.764 2.749-4.275 3.563-7.531.745-3.258 1.357-8.074 1.831-14.453.475-6.378.746-13.876.816-22.493l.1-14.045c0-.408.084-.695.254-.864.169-.17.493-.29.968-.358h31.546c.408 0 .695.102.866.306.169.204.289.508.356.916v67.275c-.067.475-.187.798-.356.967-.171.17-.458.254-.866.254h-5.902c-.475 0-.814-.084-1.016-.254-.204-.169-.273-.492-.204-.967V86.174h-17.911M447.327 141.643h9.871c4.138.068 7.379-1.034 9.719-3.308 2.339-2.272 3.511-5.411 3.511-9.415-.069-4.342-1.341-7.634-3.816-9.872-2.477-2.239-5.786-3.393-9.924-3.461h-9.361v26.056zm0-33.179h9.973c2.849 0 5.528.34 8.039 1.016 2.51.68 4.748 1.698 6.716 3.054 2.443 1.831 4.292 4.107 5.547 6.818 1.255 2.716 1.915 5.838 1.985 9.364-.07 2.85-.509 5.464-1.324 7.837-.814 2.376-1.933 4.377-3.358 6.006-1.832 2.036-4.139 3.579-6.92 4.63-2.782 1.053-6.377 1.578-10.787 1.578h-16.995c-.474 0-.814-.084-1.017-.254-.203-.169-.273-.492-.203-.967V80.271c-.07-.408 0-.695.203-.864.203-.17.543-.29 1.017-.358h5.903c.407 0 .695.102.865.306.169.204.288.508.356.916v28.193" fill="#1D5EB3"/><path d="m143.278 86.383 3.546-2.23-.424 2.23h-3.122z" fill="#6ECFE6"/><path d="m141.49 102.362-8.28 4.346 7.934-18.32 4.123 6.105-3.031 6.727-.746 1.142z" fill="#00ACCF"/><path d="m99.023 116.503 23.867-6.708-11.242 10.414-12.625-3.706z" fill="#0E87B8"/><path d="m97.069 115.712-3.777-9.361 28.408 2.438-24.631 6.923z" fill="#00ACCF"/><path d="m57.5 124.599-1.613-1.478 1.703-.845 9.02 4.273-4.882 2.5-4.2-4.457-.029.007M34.424 105.212l15.939 14.6-8.263-1.255-7.676-13.345z" fill="#1766B5"/><path d="m87.174 3.744 2.152-.386L86.33 5.05l.845-1.306z" fill="#47B8EC"/><path d="m134.647 49.515 7.958 19.103-30.739-19.7 12.78-9.924v.558l.69-.883 9.14 10.637-.009.027.18.182" fill="#C4ECFB"/><path d="m78.878 128.21.113.175-3.403 1.28.78-5.741.116-.983 6.873-3.52 1.62 2.56-5.343 6.123-.756.106M52.652 120.159l-16.759-15.35 26.177 13.758-4.593 2.323-4.825-.731" fill="#1766B5"/><path d="m55.465 121.89-.599.298-.507-.466 1.106.168z" fill="#14599D"/><path d="m53.628 122.801-5.405 2.679-5.851-1.793-.025-3.788 9.723 1.476 1.558 1.426" fill="#1766B5"/><path d="m10.462 87.736 1.546-11.091.617-1.001 17.034 24.36-10.48-5.818-8.717-6.45" fill="#0799E0"/><path d="m74.305 129.532-3.525-2.379-.16-1.209 4.482-2.296-.013.114-.784 5.77M70.44 124.587l-.634-4.783 5.699.414-.222 1.889-4.843 2.48" fill="#1766B5"/><path d="m13.268 47.802 17.012-3.256-17.26 28 .248-24.744z" fill="#47B8EC"/><path d="m44.46 17.779-.603 4.19-10.87 2.345 10.376-9.867 1.098 3.332z" fill="#59C8DA"/><path d="M45.134 22.933 63.995 11.02l9.931 57.36-41.37-25.069L45.06 23.03l.09-.02-.016-.076" fill="#96DDF8"/><path d="m74.125 70.973-.947 36.727-39.78-6.18 40.727-30.547z" fill="#47B8EC"/><path d="M32.432 100.633V44.745l41.221 24.978-41.221 30.91z" fill="#C4ECFB"/><path d="m74.468 107.696.912-35.373 15.958 32.789-16.87 2.584z" fill="#59C8DA"/><path d="M31.142 45.604v54.27l-17.78-25.426 17.78-28.844z" fill="#47B8EC"/><path d="m72.434 108.889-9.072 8.9-27.844-14.634 36.916 5.734z" fill="#0B8ED8"/><path d="m71.847 111.262-3.185 7.156-3.776-.356 6.96-6.8zM76.806 120.194l3.064-.435-3.205 1.639.141-1.204z" fill="#1766B5"/><path d="m83.212 117.98-7.01.996-6.177-.449 4.225-9.493 16.695-2.556-7.733 11.502" fill="#0B8ED8"/><path d="m75.647 69.923 34.134-19.655-17.597 53.637-16.537-33.982z" fill="#96DDF8"/><path d="m95.926 22.261 14.856-.8-.466 25.122-14.39-24.322z" fill="#66CEF5"/><path d="m111.652 44.122.416-22.374 6.983 2.988-7.399 19.386z" fill="#96DDF8"/><path d="m119.893 26.14 4.616 11.328-12.7 9.86 8.084-21.188z" fill="#C4ECFB"/><path d="m96.475 20.938 9.344-9.365 4.577 8.617-13.921.748z" fill="#66CEF5"/><path d="M85.542 7.446 97.72 6.405l-3.192 13.724-8.987-12.683z" fill="#0799E0"/><path d="M93.073 20.303 66.957 10.23l17.111-2.633 9.005 12.706z" fill="#66CEF5"/><path d="m94.39 22.196 15.295 25.855.17.687-34.572 19.913-9.987-57.68L94.39 22.196z" fill="#C4ECFB"/><path d="m62.952 10.153-17.7 11.18.479-3.327L55.08 7.639l7.872 2.514M44.408 13.493 46.8 11.5l-1.636 4.292-.756-2.299zM31.165 24.274l-3.001-8.708 5.447-2.954 8.623 1.13-11.07 10.532" fill="#59C8DA"/><path d="m31.727 25.904 11.584-2.498-11.778 19.107-9.145-8.123 8.578-8.155 1.108.675-.347-1.006zM30.38 43.213l-16.684 3.193 7.84-11.046 8.843 7.853z" fill="#47B8EC"/><path d="m11.733 72.162-2.105-4.737 2.295-14.076-.19 18.813zM11.089 73.89l-.322 2.31-3.494 5.668 1.975-12.12 1.84 4.143" fill="#0799E0"/><path d="m63.678 119.2 4.813.489.73 5.521-1.163.598-9.008-4.268 4.628-2.34M69.44 127.89l-.372 1.701-4.887-.349 3.9-1.997 1.359.645zM70.605 128.593l1.837 1.238-2.074-.148.237-1.09zM73.314 131.187l-4.148 4.001.923-4.231 3.225.23zM74.159 132.165v5.981l-4.816-1.337 4.816-4.644zM85.572 123.195l1.719 3.851-5.723.791 4.004-4.642zM85.98 121.166l-1.326-2.104 8.043-1.282-6.717 3.386z" fill="#1766B5"/><path d="m84.95 117.709 7.207-10.722 3.629 8.993-10.837 1.729z" fill="#0E87B8"/><path d="m110.622 51.838 13.826 55.893-31.305-2.687 17.479-53.206z" fill="#59C8DA"/><path d="M111.726 50.933 140.23 87.04l-14.644 19.919-13.86-56.027z" fill="#6ECFE6"/><path d="m140.655 85.498-26.516-33.591 29.144 18.679-2.628 14.912z" fill="#96DDF8"/><path d="m124.646 34.386-3.582-8.79 3.582 1.532v7.258z" fill="#C4ECFB"/><path d="m113.044 20.764 8.179-3.691-1.771 6.43-6.408-2.74zM111.078 18.723l-3.363-6.33 3.899 2.526-.536 3.804z" fill="#96DDF8"/><path d="m95.97 19.618 3-12.89 5.989 3.88-8.988 9.01z" fill="#66CEF5"/><path d="m87.262 6.004 5.66-3.193 3.698 2.394-9.358.799z" fill="#0799E0"/><path d="m66.59 8.98 7.695-6.635 8.043 4.215L66.59 8.98zM64.858 8.77 62.864 0 73.66 1.182 64.858 8.77z" fill="#66CEF5"/><path d="m63.587 9.003-7.539-2.407L61.675.588l1.912 8.415zM46.948 14.73l1.827-4.801L52.6 8.462l-5.653 6.268zM47.698 9.115l-4.232 3.488-8.653-1.134 14.572-8.912-1.687 6.558z" fill="#59C8DA"/><path d="m29.686 23.944-3.534-2.156 1.276-4.395 2.258 6.55z" fill="#0E87B8"/><path d="m21.89 33.1-1.056-7.027h8.442L21.89 33.1z" fill="#00ACCF"/><path d="m12.472 45.912-4.07-12.781L20.3 34.89l-7.828 11.021zM8.672 65.275l-3.222-7.25 5.718-8.056-2.496 15.306zM8.293 67.597 6.41 79.138l-.883-17.762 2.765 6.22z" fill="#0799E0"/><path d="m6.884 84.956 3.44-5.58-1.043 7.486L7.08 85.23l-.195-.275" fill="#0B8ED8"/><path d="m10.26 89.187 6.961 5.149-3.264.596-3.759-5.302.062-.443z" fill="#0799E0"/><path d="m14.236 96.19 4.447-.81 10.615 5.898H13.446l.79-5.087zM14.181 102.568h17.233l9.251 16.08-10.031 1.478-16.453-17.558" fill="#0B8ED8"/><path d="m41.959 124.91 5.22 1.599-7.64 1.417 2.42-3.016zM54.648 123.735l1.263 1.157-5.742 1.065 4.479-2.222zM68.79 130.864l-1.007 4.611-4.732-5.021 5.739.41zM71.045 166.57l-1.005 3.304-1.73-2.279 2.735-1.025zM71.436 165.045l-3.365 1.263 4.555-14.634-1.19 13.371zM68.059 162.007l.61-23.071 4.351 7.135-4.961 15.936zM67.87 169.149l1.621 2.137-1.744 2.509.123-4.646zM70.312 172.367l2.25 2.968-4.507.278 2.257-3.246zM81.922 176.282l-6.636-.839 7.308-6.546-.672 7.385zM83.798 169.903l2.24 5.182-2.801.981.56-6.163zM73.895 174.957l-2.893-3.814 1.494-4.911 9.45 1.514-8.051 7.211M73.044 161.54l1.251-14.061 3.369 3.299-4.62 10.762zM78.651 151.745l3.394 3.322-8.165 7.794 4.771-11.116zM74.85 146.22l6.204-3.341-2.845 6.628-3.358-3.287zM74.57 144.906l.816-4.612.552-.313 5.13 1.425-6.499 3.5M74.159 139.827l-.773 4.364-3.614-5.923 4.387 1.219v.34M75.449 138.506v-6.856l6.958 3.168-6.64 3.776-.318-.088M76.485 130.704l3.216-1.207 2.406 3.767-5.622-2.56zM81.048 129.212l6.526-.902-3.724 5.286-2.802-4.384zM88.61 126.838l-2.028-4.531 8.093-4.081-6.066 8.612z" fill="#1766B5"/><path d="m126.921 107.322 11.256-15.31-6.707 15.471h-.101l-.005.025-4.336.213.663-.616-.77.217zM141.928 85.707l2.227-12.634 2.821 9.46-5.048 3.174z" fill="#00ACCF"/><path d="m144.013 68.648-6.943-16.667 9.896 10.069-2.953 6.598zM146.207 59.439l-10.291-10.475 3.07-10.651 7.221 21.126zM134.902 47.826l-8.616-9.982 8.094-4.715 3.819 3.258-3.297 11.44" fill="#96DDF8"/><path d="m133.34 32.24-7.404 4.133v-8.627l7.404 4.495z" fill="#C4ECFB"/><path d="m121.125 24.218 3.521-2.785v4.292l-3.521-1.507zM124.402 19.982l-3.382 2.675 1.458-5.283 1.924 2.608zM112.242 19.71l.625-4.44 7.04.983-7.665 3.457z" fill="#96DDF8"/><path d="m84.296 5.82-3.18-3.76 4.666 1.46-1.486 2.3zM81.742 4.796l-6.583-3.45 4.04.443 2.543 3.007z" fill="#47B8EC"/><path d="m54.687 6.161-.008-.003-.174.194-5.288 2.028 1.71-6.636L60.266.205l-5.579 5.956z" fill="#59C8DA"/><path d="m25.4 22.84 3.185 1.943h-6.268l3.084-1.942zM19.584 26.437l1.084 7.205-11.202-1.658 10.118-5.547z" fill="#00ACCF"/><path d="m7.787 35.45 3.75 11.78-5.919 8.331 2.169-20.11zM4.283 62.312 5.34 83.586 0 79.383l4.283-17.071zM9.939 91.494l3.052 4.305-.732 4.717-3.114-3.324.794-5.698z" fill="#0799E0"/><path d="m41.057 119.894.026 4.044-3.172 3.955-6.204-6.621 9.35-1.378z" fill="#0B8ED8"/><path d="m57.764 176.244 8.826-7.52-.184 6.989-8.642.531zM87.367 174.91l-3.507-7.091 10.815 8.463-7.308-1.372zM82.715 166.562l-9.287-1.486 8.95-8.542.337 10.028zM82.274 153.487l-3.077-3.014 2.76-6.428.317 9.442zM82.017 140.332l-4.497-1.252 5.43-3.088-.933 4.34zM104.098 124.46l-5.576-6.76 11.519 3.382-5.943 3.378zM120.085 119.377l-6.397.702 10.116-9.373-2.99 8.413-.729.258" fill="#1766B5"/><path d="m129.575 116.004-7.195 2.556 3.374-9.486 5.335-.261-1.514 7.191z" fill="#0E87B8"/><path d="M138.145 107.483h-3.734l5.645-2.925-1.911 2.925z" fill="#00ACCF"/><path d="m143.65 89.55-1.351-1.877h3.363l-2.012 1.877z" fill="#6ECFE6"/><path d="M165.388 175.502v-9.242a.37.37 0 0 1 .031-.162c.021-.042.057-.067.111-.082l.446-.1.649-.163c.013 0 .036-.004.071-.01a.526.526 0 0 1 .092-.01c.04 0 .069.016.09.051a.521.521 0 0 1 .05.132v5.491l-.06 1.987h.06c.271-.541.478-.946.618-1.215.142-.271.261-.487.355-.649l3.101-5.412a.165.165 0 0 1 .05-.062l.071-.04 1.095-.263h.08a.173.173 0 0 0 .081-.02.1.1 0 0 1 .092.051c.02.034.037.078.05.132v9.586c0 .094-.019.158-.061.192-.04.035-.1.05-.181.05h-1.054c-.096 0-.163-.015-.203-.05-.04-.034-.054-.098-.04-.192v-5.147l.06-1.967h-.06c-.204.379-.389.732-.558 1.064-.169.331-.307.591-.416.78l-3.099 5.412a.247.247 0 0 1-.081.081.365.365 0 0 1-.142.019h-1.054c-.095 0-.159-.015-.192-.05-.035-.034-.052-.098-.052-.192M177.425 171.367v4.135c0 .094-.021.158-.061.192-.041.035-.102.05-.182.05h-1.053c-.096 0-.16-.015-.194-.05-.033-.034-.05-.098-.05-.194v-9.259c0-.068.01-.123.031-.163.019-.04.056-.068.111-.08l.446-.103.647-.162a.446.446 0 0 0 .071-.009.467.467 0 0 1 .092-.011.1.1 0 0 1 .091.051c.02.033.037.077.051.131v4.216h3.911v-3.869c0-.068.01-.122.03-.162.02-.042.057-.069.111-.082l1.094-.265a.372.372 0 0 0 .081-.009.336.336 0 0 1 .082-.011c.041 0 .071.017.091.051.02.033.036.077.051.131v9.605c-.015.096-.038.16-.071.194-.034.035-.092.05-.172.05h-1.054c-.095 0-.162-.015-.202-.05-.041-.034-.054-.098-.041-.192v-4.135h-3.911M192.076 167.882v6.161c.242.229.476.392.698.486.223.094.429.141.619.141.689.014 1.188-.263 1.499-.83.31-.569.465-1.588.465-3.06 0-1.366-.155-2.32-.465-2.868-.311-.547-.791-.821-1.439-.821-.243 0-.49.079-.74.234-.25.154-.463.341-.637.557zm-1.54 6.161v-6.161a2.92 2.92 0 0 0-.659-.557c-.25-.155-.49-.234-.72-.234-.662.014-1.148.29-1.459.831-.311.54-.459 1.492-.446 2.858 0 1.472.152 2.489.457 3.05.304.56.807.84 1.509.84.175 0 .375-.047.598-.141.222-.094.462-.257.72-.486zm1.296 5.957h-1.054c-.095-.013-.158-.036-.192-.071-.035-.033-.05-.09-.05-.172v-4.356a2.13 2.13 0 0 1-.701.476c-.25.101-.515.151-.799.151-1.108 0-1.959-.453-2.553-1.358-.596-.905-.892-2.188-.892-3.85 0-1.675.29-2.941.87-3.8.582-.858 1.352-1.287 2.31-1.287.285.014.568.081.853.204.282.119.587.317.912.586v-4.458c0-.054.013-.104.04-.152a.189.189 0 0 1 .121-.092l.973-.242c.162-.04.267-.044.314-.01.047.033.078.098.092.192v4.762c.309-.269.607-.467.89-.586.285-.123.575-.19.872-.204.945 0 1.713.429 2.3 1.287.588.859.882 2.125.882 3.8 0 1.662-.301 2.945-.902 3.85-.602.905-1.45 1.358-2.543 1.358a2.17 2.17 0 0 1-.821-.151 1.914 1.914 0 0 1-.678-.476v4.356a.318.318 0 0 1-.072.172c-.034.035-.091.058-.172.071M203.119 166.989c-.825 0-1.426.342-1.804 1.024-.378.682-.568 1.639-.568 2.868 0 1.244.19 2.202.568 2.877.378.677.979 1.014 1.804 1.014.81 0 1.408-.337 1.793-1.014.385-.675.577-1.633.577-2.877-.013-1.229-.209-2.186-.587-2.868-.379-.682-.973-1.024-1.783-1.024zm0-1.256c1.188 0 2.154.442 2.897 1.328.743.884 1.121 2.159 1.134 3.82 0 1.676-.374 2.949-1.123 3.821-.751.869-1.72 1.312-2.908 1.326-1.203 0-2.175-.438-2.918-1.317-.743-.877-1.115-2.154-1.115-3.83 0-1.661.372-2.932 1.115-3.809.743-.879 1.715-1.325 2.918-1.339zM211.548 168.084v5.918c.337.202.699.365 1.084.487.385.12.732.181 1.043.181.716 0 1.24-.263 1.571-.79.33-.526.497-1.561.497-3.1-.014-1.406-.182-2.372-.507-2.898-.324-.528-.824-.791-1.5-.791-.297.014-.631.101-1.002.263a5.76 5.76 0 0 0-1.186.73zm-1.54 11.693v-11.126a4.896 4.896 0 0 0-.131-1.063 3.707 3.707 0 0 0-.336-.822 1.607 1.607 0 0 1-.142-.242v-.04a.18.18 0 0 1 .011-.052c.006-.019.037-.05.091-.092l.872-.547a.295.295 0 0 1 .182-.05.3.3 0 0 1 .163.092c.107.135.212.3.313.495.101.197.179.396.233.599l.162-.12c.5-.367.963-.636 1.389-.812a3.308 3.308 0 0 1 1.266-.264c1.04.014 1.854.456 2.442 1.328.587.871.881 2.124.881 3.759-.014 1.676-.331 2.962-.953 3.86-.622.899-1.52 1.348-2.695 1.348-.405 0-.797-.06-1.175-.183a3.776 3.776 0 0 1-1.033-.506v4.135a.63.63 0 0 1-.062.152.187.187 0 0 1-.1.09l-.973.244c-.175.04-.29.044-.344.01-.054-.034-.075-.099-.061-.193zM222.206 166.2l1.58 4.437c.054.163.108.359.163.588l.183.791h.059a13.634 13.634 0 0 1 .365-1.379l1.561-4.437c.013-.069.033-.113.06-.133a.374.374 0 0 1 .122-.051h1.439c.053 0 .092.019.111.051a.475.475 0 0 1 .05.133l.528 9.382c0 .054-.014.095-.042.122-.027.026-.067.04-.121.04h-1.154c-.069 0-.112-.01-.132-.029-.02-.021-.031-.065-.031-.133l-.223-7.032c-.013 0-.017.004-.01.01.008.008.01-.247.01-.759h-.04c-.041.189-.071.341-.091.456-.02.114-.044.213-.071.293l-1.702 4.924a1.091 1.091 0 0 1-.091.183c-.021.029-.071.034-.152.021h-.831c-.095 0-.152-.011-.173-.031a.511.511 0 0 1-.071-.173l-1.68-4.924a1.23 1.23 0 0 1-.082-.242 9.645 9.645 0 0 1-.102-.507h-.04c-.014.512-.014.763 0 .749l-.223 7.032a.306.306 0 0 1-.05.133c-.021.019-.058.029-.112.029h-1.155c-.068 0-.116-.014-.143-.04-.027-.027-.032-.068-.019-.122l.527-9.382a.21.21 0 0 1 .04-.133c.028-.032.074-.051.142-.051h1.419a.13.13 0 0 1 .101.051.815.815 0 0 1 .081.133M236.188 173.515V170.9h-.305c-1.081.015-1.931.208-2.552.58-.622.371-.925.914-.912 1.63 0 .514.135.919.405 1.217.271.296.622.445 1.054.445.325 0 .685-.105 1.084-.315a4.535 4.535 0 0 0 1.104-.821l.122-.121zm0-3.87v-.73c-.015-.662-.162-1.132-.447-1.409-.282-.276-.701-.415-1.256-.415-.351 0-.733.05-1.144.151-.413.103-.78.227-1.104.375a1.67 1.67 0 0 1-.244.111.245.245 0 0 1-.06.012.128.128 0 0 1-.113-.012.1.1 0 0 1-.05-.09l-.303-.81c-.041-.094-.035-.179.019-.254.054-.074.19-.158.407-.253a9.88 9.88 0 0 1 1.367-.426 6.208 6.208 0 0 1 1.408-.162c1 0 1.76.24 2.279.72.52.479.781 1.164.781 2.057v4.6c0 .244.02.507.06.791.042.282.102.506.183.668.028.081.068.183.122.303a.87.87 0 0 0 .162.265c.04.067.067.121.08.162 0 .027-.01.051-.029.07a.658.658 0 0 1-.092.072l-.851.527c-.109.054-.199.054-.274 0-.073-.055-.158-.163-.253-.324a2.655 2.655 0 0 1-.202-.365 6.082 6.082 0 0 1-.183-.547l-.02-.062-.081.082c-.5.5-.966.838-1.398 1.013a3.533 3.533 0 0 1-1.338.263c-.837-.014-1.506-.269-2.006-.77-.5-.499-.742-1.195-.729-2.087 0-.852.25-1.551.75-2.098.5-.547 1.203-.929 2.107-1.145.311-.067.679-.132 1.104-.192a7.564 7.564 0 0 1 1.024-.091h.324M242.531 174.489h3.708v-8.248c0-.068.009-.123.03-.163a.156.156 0 0 1 .112-.08l1.094-.265h.081a.162.162 0 0 0 .081-.02.1.1 0 0 1 .091.051c.02.033.037.077.051.131v8.594h.993c.08.012.145.03.191.05.048.02.079.091.092.213v3.728c0 .082-.02.142-.061.184-.04.04-.1.06-.182.06h-1.053a.41.41 0 0 1-.203-.071c-.041-.033-.054-.091-.041-.173v-2.736h-6.282c-.094 0-.158-.015-.192-.05-.033-.034-.051-.098-.051-.194v-9.259a.37.37 0 0 1 .031-.163.156.156 0 0 1 .112-.08l1.094-.265a.372.372 0 0 0 .081-.009.316.316 0 0 1 .081-.011.19.19 0 0 1 .09.061.336.336 0 0 1 .052.121v8.594M251.284 175.502v-9.242c0-.067.01-.121.031-.162.019-.042.056-.067.111-.082l.446-.1.647-.163a.481.481 0 0 0 .071-.01.547.547 0 0 1 .092-.01c.041 0 .071.016.091.051a.52.52 0 0 1 .051.132v5.491l-.061 1.987h.061c.271-.541.476-.946.618-1.215.141-.271.26-.487.354-.649l3.101-5.412a.165.165 0 0 1 .05-.062l.071-.04 1.094-.263h.083a.178.178 0 0 0 .08-.02c.04 0 .07.016.091.051a.521.521 0 0 1 .05.132v9.586c0 .094-.02.158-.06.192-.041.035-.101.05-.182.05h-1.054c-.095 0-.162-.015-.204-.05-.04-.034-.054-.098-.04-.192v-5.147l.061-1.967h-.061c-.202.379-.388.732-.557 1.064-.169.331-.307.591-.415.78l-3.1 5.412a.247.247 0 0 1-.081.081.365.365 0 0 1-.142.019h-1.054c-.095 0-.159-.015-.193-.05-.034-.034-.05-.098-.05-.192M265.165 166.989c-.824 0-1.425.342-1.803 1.024-.378.682-.568 1.639-.568 2.868 0 1.244.19 2.202.568 2.877.378.677.979 1.014 1.803 1.014.811 0 1.408-.337 1.794-1.014.383-.675.577-1.633.577-2.877-.015-1.229-.209-2.186-.587-2.868-.38-.682-.973-1.024-1.784-1.024zm0-1.256c1.189 0 2.154.442 2.897 1.328.743.884 1.121 2.159 1.135 3.82 0 1.676-.374 2.949-1.125 3.821-.749.869-1.718 1.312-2.907 1.326-1.204 0-2.176-.438-2.918-1.317-.743-.877-1.115-2.154-1.115-3.83 0-1.661.372-2.932 1.115-3.809.742-.879 1.714-1.325 2.918-1.339M273.453 171.367v4.135c0 .094-.021.158-.062.192-.04.035-.102.05-.183.05h-1.053c-.095 0-.158-.015-.192-.05-.035-.034-.053-.098-.053-.194v-9.259c0-.068.012-.123.033-.163.02-.04.056-.068.112-.08l.446-.103.646-.162a.46.46 0 0 0 .071-.009.476.476 0 0 1 .092-.011c.041 0 .071.017.091.051.02.033.037.077.052.131v4.216h3.911v-3.869c0-.068.01-.122.029-.162a.154.154 0 0 1 .111-.082l1.094-.265a.347.347 0 0 0 .081-.009.344.344 0 0 1 .083-.011c.04 0 .071.017.09.051a.412.412 0 0 1 .051.131v9.605c-.012.096-.038.16-.07.194-.036.035-.092.05-.174.05h-1.053c-.094 0-.161-.015-.202-.05-.04-.034-.056-.098-.04-.192v-4.135h-3.911M283.806 171.367v4.135c0 .094-.019.158-.06.192-.042.035-.102.05-.182.05h-1.055c-.094 0-.159-.015-.192-.05-.034-.034-.051-.098-.051-.194v-9.259c0-.068.011-.123.03-.163a.158.158 0 0 1 .112-.08l.447-.103.648-.162a.481.481 0 0 0 .07-.009.467.467 0 0 1 .092-.011.1.1 0 0 1 .091.051.466.466 0 0 1 .05.131v4.216h3.911v-3.869c0-.068.01-.122.031-.162.019-.042.057-.069.111-.082l1.094-.265a.372.372 0 0 0 .081-.009.322.322 0 0 1 .081-.011.1.1 0 0 1 .092.051.499.499 0 0 1 .05.131v9.605c-.013.096-.037.16-.071.194-.033.035-.09.05-.173.05h-1.052c-.094 0-.163-.015-.203-.05-.041-.034-.054-.098-.041-.192v-4.135h-3.911M296.004 166.989c-.824 0-1.425.342-1.803 1.024-.378.682-.567 1.639-.567 2.868 0 1.244.189 2.202.567 2.877.378.677.979 1.014 1.803 1.014.81 0 1.409-.337 1.794-1.014.385-.675.577-1.633.577-2.877-.014-1.229-.209-2.186-.587-2.868-.379-.682-.974-1.024-1.784-1.024zm0-1.256c1.188 0 2.154.442 2.897 1.328.743.884 1.121 2.159 1.135 3.82 0 1.676-.374 2.949-1.125 3.821-.749.869-1.719 1.312-2.907 1.326-1.202 0-2.174-.438-2.919-1.317-.743-.877-1.114-2.154-1.114-3.83 0-1.661.371-2.932 1.114-3.809.745-.879 1.717-1.325 2.919-1.339M302.124 171.164v-1.032c-.012-.083 0-.14.042-.173a.409.409 0 0 1 .202-.071h4.579c.081 0 .142.02.182.06.04.04.061.101.061.184v1.032a.407.407 0 0 1-.071.203c-.034.04-.091.055-.172.04h-4.579c-.095 0-.16-.016-.193-.05-.034-.033-.051-.098-.051-.193M311.446 167.274v8.228c0 .094-.021.158-.061.192-.041.035-.101.05-.183.05h-1.053c-.095 0-.159-.015-.193-.05-.033-.034-.05-.098-.05-.192v-9.242c0-.081.017-.139.05-.173.034-.032.098-.056.193-.071h6.302c.081 0 .138.021.172.061a.379.379 0 0 1 .07.183v9.242c0 .094-.019.158-.061.192-.04.035-.1.05-.181.05h-1.054c-.094 0-.163-.015-.203-.05-.04-.034-.054-.098-.04-.192v-8.228h-3.708M321.737 168.084v5.918c.338.202.701.365 1.085.487.386.12.734.181 1.045.181.715 0 1.238-.263 1.57-.79.33-.526.496-1.561.496-3.1-.013-1.406-.182-2.372-.507-2.898-.323-.528-.824-.791-1.498-.791-.298.014-.634.101-1.004.263a5.819 5.819 0 0 0-1.187.73zm-1.538 11.693v-11.126a4.76 4.76 0 0 0-.133-1.063 3.694 3.694 0 0 0-.333-.822 1.569 1.569 0 0 1-.143-.242v-.04a.21.21 0 0 1 .01-.052.323.323 0 0 1 .092-.092l.87-.547a.302.302 0 0 1 .184-.05.294.294 0 0 1 .162.092c.108.135.213.3.314.495.101.197.179.396.233.599l.163-.12c.499-.367.962-.636 1.387-.812a3.315 3.315 0 0 1 1.266-.264c1.041.014 1.854.456 2.443 1.328.586.871.881 2.124.881 3.759-.013 1.676-.331 2.962-.952 3.86-.622.899-1.521 1.348-2.696 1.348-.405 0-.797-.06-1.175-.183a3.845 3.845 0 0 1-1.035-.506v4.135a.497.497 0 0 1-.06.152.179.179 0 0 1-.101.09l-.972.244c-.176.04-.29.044-.345.01-.054-.034-.074-.099-.06-.193zM334.809 173.515V170.9h-.304c-1.08.015-1.932.208-2.553.58-.622.371-.925.914-.912 1.63 0 .514.135.919.405 1.217.271.296.621.445 1.053.445.324 0 .685-.105 1.085-.315a4.51 4.51 0 0 0 1.103-.821l.123-.121zm0-3.87v-.73c-.015-.662-.163-1.132-.447-1.409-.282-.276-.701-.415-1.255-.415-.352 0-.734.05-1.145.151-.413.103-.78.227-1.104.375a1.724 1.724 0 0 1-.244.111.243.243 0 0 1-.061.012.126.126 0 0 1-.112-.012.098.098 0 0 1-.05-.09l-.303-.81a.24.24 0 0 1 .02-.254c.053-.074.189-.158.404-.253a9.906 9.906 0 0 1 1.369-.426 6.206 6.206 0 0 1 1.407-.162c1.001 0 1.76.24 2.28.72.52.479.781 1.164.781 2.057v4.6c0 .244.02.507.06.791.041.282.101.506.183.668.026.081.067.183.122.303a.87.87 0 0 0 .162.265c.04.067.066.121.08.162 0 .027-.01.051-.03.07a.586.586 0 0 1-.091.072l-.851.527c-.109.054-.199.054-.274 0a1.13 1.13 0 0 1-.253-.324 2.768 2.768 0 0 1-.202-.365 6.434 6.434 0 0 1-.183-.547l-.02-.062-.081.082c-.5.5-.966.838-1.398 1.013-.434.175-.88.263-1.338.263-.837-.014-1.506-.269-2.007-.77-.499-.499-.743-1.195-.728-2.087 0-.852.249-1.551.749-2.098.5-.547 1.203-.929 2.108-1.145.31-.067.678-.132 1.104-.192a7.564 7.564 0 0 1 1.024-.091h.324M341.151 171.307v3.182h1.905c.567 0 1.006-.139 1.316-.416.31-.278.466-.665.466-1.165 0-.514-.148-.906-.445-1.176-.298-.27-.743-.411-1.337-.425h-1.905zm0-4.033v2.775h1.875c.462 0 .833-.13 1.112-.393.277-.265.418-.62.418-1.066 0-.418-.145-.739-.429-.962-.286-.223-.673-.341-1.163-.354h-1.813zm-1.297-1.258h3.212c.989.015 1.727.231 2.216.649.487.418.732 1.041.732 1.864-.014.515-.141.947-.38 1.298a2.072 2.072 0 0 1-.978.77c.555.149.979.432 1.276.85.298.42.446.92.446 1.501-.013.864-.307 1.546-.881 2.047-.574.5-1.355.749-2.34.749h-3.304c-.094 0-.159-.015-.192-.05-.034-.034-.051-.098-.051-.192v-9.242c0-.081.017-.139.051-.173.033-.032.098-.056.193-.071M352.6 166.989c-.824 0-1.425.342-1.803 1.024-.378.682-.567 1.639-.567 2.868 0 1.244.189 2.202.567 2.877.378.677.979 1.014 1.803 1.014.81 0 1.409-.337 1.794-1.014.385-.675.577-1.633.577-2.877-.014-1.229-.209-2.186-.587-2.868-.379-.682-.974-1.024-1.784-1.024zm0-1.256c1.188 0 2.154.442 2.897 1.328.743.884 1.121 2.159 1.135 3.82 0 1.676-.374 2.949-1.124 3.821-.75.869-1.72 1.312-2.908 1.326-1.203 0-2.174-.438-2.919-1.317-.742-.877-1.114-2.154-1.114-3.83 0-1.661.372-2.932 1.114-3.809.745-.879 1.716-1.325 2.919-1.339M360.887 171.307v3.182h1.904c.569 0 1.007-.139 1.318-.416.31-.278.466-.665.466-1.165 0-.514-.148-.906-.445-1.176-.298-.27-.744-.411-1.339-.425h-1.904zm0-4.033v2.775h1.876c.46 0 .832-.13 1.11-.393.279-.265.419-.62.419-1.066 0-.418-.144-.739-.429-.962-.285-.223-.672-.341-1.162-.354h-1.814zm-1.296-1.258h3.212c.989.015 1.727.231 2.216.649.487.418.731 1.041.731 1.864-.013.515-.141.947-.381 1.298a2.058 2.058 0 0 1-.976.77c.553.149.978.432 1.276.85.296.42.446.92.446 1.501-.013.864-.308 1.546-.881 2.047-.574.5-1.356.749-2.34.749h-3.304c-.094 0-.159-.015-.192-.05-.034-.034-.051-.098-.051-.192v-9.242c0-.081.017-.139.051-.173.033-.032.098-.056.193-.071M373.533 173.515V170.9h-.305c-1.081.015-1.932.208-2.552.58-.623.371-.926.914-.912 1.63 0 .514.134.919.403 1.217.271.296.623.445 1.056.445.323 0 .684-.105 1.083-.315a4.535 4.535 0 0 0 1.104-.821l.123-.121zm0-3.87v-.73c-.015-.662-.163-1.132-.447-1.409-.283-.276-.703-.415-1.256-.415-.351 0-.733.05-1.144.151a6.317 6.317 0 0 0-1.105.375 1.738 1.738 0 0 1-.243.111.251.251 0 0 1-.061.012.126.126 0 0 1-.112-.012c-.035-.019-.05-.05-.05-.09l-.304-.81a.24.24 0 0 1 .02-.254c.053-.074.19-.158.405-.253a9.923 9.923 0 0 1 1.367-.426 6.23 6.23 0 0 1 1.409-.162c.999 0 1.759.24 2.279.72.521.479.782 1.164.782 2.057v4.6c0 .244.02.507.06.791.04.282.101.506.182.668.027.081.067.183.121.303a.889.889 0 0 0 .163.265c.04.067.067.121.081.162 0 .027-.01.051-.031.07a.57.57 0 0 1-.09.072l-.851.527c-.109.054-.2.054-.274 0-.075-.055-.158-.163-.253-.324a2.795 2.795 0 0 1-.203-.365 6.18 6.18 0 0 1-.182-.547l-.021-.062-.08.082c-.5.5-.966.838-1.398 1.013-.433.175-.88.263-1.339.263-.837-.014-1.505-.269-2.006-.77-.5-.499-.742-1.195-.73-2.087 0-.852.251-1.551.75-2.098.5-.547 1.203-.929 2.107-1.145.311-.067.68-.132 1.106-.192a7.55 7.55 0 0 1 1.024-.091h.324M383.014 170.334v-3.06h-1.398c-.689 0-1.192.131-1.509.394-.317.264-.476.625-.476 1.085 0 .5.173.888.516 1.166.346.276.834.415 1.469.415h1.398zm-1.417-4.317h2.715c.081 0 .138.02.173.06a.4.4 0 0 1 .069.183v9.242c0 .094-.019.158-.059.192-.041.035-.102.05-.183.05h-1.054c-.095 0-.159-.015-.192-.05-.034-.034-.052-.098-.052-.192v-3.911h-1.094c-.432.012-.736.101-.911.263-.176.162-.311.433-.405.811l-.324 1.175c-.217.758-.405 1.249-.568 1.479-.162.231-.384.4-.669.507a3.517 3.517 0 0 1-.547.131 6.038 6.038 0 0 1-.689.071c-.108 0-.179-.017-.213-.05a.292.292 0 0 1-.071-.111l-.263-.912c-.027-.083-.033-.142-.019-.183.012-.04.101-.074.263-.102l.243-.04c.135-.013.25-.036.344-.071a.835.835 0 0 0 .242-.132.67.67 0 0 0 .173-.233c.061-.115.111-.226.152-.334l.467-1.52a1.86 1.86 0 0 1 .374-.74c.168-.195.368-.347.598-.456v-.06c-.635-.109-1.129-.382-1.48-.822a2.405 2.405 0 0 1-.526-1.549c0-.798.29-1.446.872-1.947.58-.498 1.457-.749 2.634-.749M394.16 167.274v8.228c0 .094-.021.158-.061.192-.041.035-.102.05-.183.05h-1.054c-.094 0-.159-.015-.192-.05-.034-.034-.052-.098-.052-.192v-9.242c0-.081.018-.139.052-.173.033-.032.098-.056.192-.071h6.302c.081 0 .138.021.172.061a.379.379 0 0 1 .071.183v9.242c0 .094-.02.158-.061.192-.04.035-.101.05-.182.05h-1.054c-.094 0-.162-.015-.202-.05-.04-.034-.054-.098-.04-.192v-8.228h-3.708M406.156 166.989c-.824 0-1.426.342-1.804 1.024-.378.682-.567 1.639-.567 2.868 0 1.244.189 2.202.567 2.877.378.677.98 1.014 1.804 1.014.809 0 1.407-.337 1.793-1.014.384-.675.576-1.633.576-2.877-.012-1.229-.208-2.186-.586-2.868-.38-.682-.974-1.024-1.783-1.024zm0-1.256c1.187 0 2.153.442 2.897 1.328.743.884 1.121 2.159 1.135 3.82 0 1.676-.375 2.949-1.126 3.821-.749.869-1.719 1.312-2.906 1.326-1.203 0-2.176-.438-2.919-1.317-.743-.877-1.114-2.154-1.114-3.83 0-1.661.371-2.932 1.114-3.809.743-.879 1.716-1.325 2.919-1.339zM417.968 167.274h-2.736v1.337a21.77 21.77 0 0 1-.254 3.201 11.41 11.41 0 0 1-.758 2.677h3.748v-7.215zm-3.871-1.258h5.126c.096 0 .163.021.204.061.041.041.067.116.081.223v8.189h.933c.08.012.144.03.192.05.046.02.077.091.09.213v3.728c0 .082-.019.142-.059.184-.041.04-.102.06-.183.06h-1.054a.426.426 0 0 1-.204-.071c-.04-.033-.054-.091-.04-.173v-2.736h-5.896v2.736c0 .082-.02.142-.06.184-.042.04-.102.06-.183.06h-1.054a.425.425 0 0 1-.203-.071c-.04-.033-.054-.091-.04-.173v-3.728c-.014-.122.007-.193.061-.213.053-.02.128-.038.222-.05h.609c.446-.907.753-1.842.922-2.808.169-.965.253-2.461.253-4.489v-.892c-.015-.121.003-.194.05-.223a.731.731 0 0 1 .233-.061M427.998 167.274h-2.736v1.337a21.779 21.779 0 0 1-.253 3.201 11.46 11.46 0 0 1-.759 2.677h3.748v-7.215zm-3.871-1.258h5.127c.094 0 .163.021.203.061.041.041.068.116.081.223v8.189h.932a.83.83 0 0 1 .194.05c.046.02.076.091.09.213v3.728c0 .082-.02.142-.06.184-.04.04-.102.06-.184.06h-1.053a.417.417 0 0 1-.203-.071c-.04-.033-.054-.091-.04-.173v-2.736h-5.897v2.736c0 .082-.019.142-.06.184-.042.04-.102.06-.182.06h-1.055a.417.417 0 0 1-.203-.071c-.04-.033-.054-.091-.04-.173v-3.728c-.014-.122.008-.193.062-.213a.986.986 0 0 1 .222-.05h.607a10.36 10.36 0 0 0 .923-2.808c.169-.965.252-2.461.252-4.489v-.892c-.013-.121.004-.194.051-.223a.74.74 0 0 1 .233-.061M433.815 169.948h4.376c0-.296-.029-.598-.091-.901a4.876 4.876 0 0 0-.234-.821c-.174-.392-.414-.692-.718-.901a1.988 1.988 0 0 0-1.084-.336c-.688 0-1.233.267-1.631.801-.399.534-.605 1.254-.618 2.158zm5.409 4.012.365.912a.2.2 0 0 0 .011.073c.006.02.01.036.01.05-.014.068-.077.139-.192.213a5.603 5.603 0 0 1-.557.294 6.815 6.815 0 0 1-1.146.375 6.224 6.224 0 0 1-1.144.151c-1.337 0-2.409-.442-3.213-1.326-.803-.886-1.204-2.159-1.204-3.821-.014-1.594.361-2.851 1.124-3.769.763-.919 1.739-1.379 2.927-1.379 1.149.014 2.039.429 2.676 1.246.635.818.959 2.078.973 3.781v.1a.892.892 0 0 1-.061.264c-.028.054-.082.081-.162.081h-5.816v.102c0 1 .253 1.81.76 2.431.505.622 1.185.932 2.036.932.338 0 .681-.053 1.033-.161a5.977 5.977 0 0 0 1.196-.549 2.26 2.26 0 0 0 .142-.059.766.766 0 0 1 .102-.041h.04c.013.014.031.027.05.041a.147.147 0 0 1 .05.059M444.107 168.084v5.918c.337.202.7.365 1.084.487.386.12.734.181 1.045.181.715 0 1.238-.263 1.57-.79.33-.526.496-1.561.496-3.1-.013-1.406-.182-2.372-.507-2.898-.323-.528-.824-.791-1.498-.791-.298.014-.634.101-1.004.263a5.787 5.787 0 0 0-1.186.73zm-1.539 11.693v-11.126a4.76 4.76 0 0 0-.133-1.063 3.694 3.694 0 0 0-.333-.822 1.569 1.569 0 0 1-.143-.242v-.04a.21.21 0 0 1 .01-.052.323.323 0 0 1 .092-.092l.871-.547a.298.298 0 0 1 .183-.05.294.294 0 0 1 .162.092c.109.135.213.3.314.495.101.197.179.396.233.599l.163-.12c.499-.367.962-.636 1.387-.812a3.315 3.315 0 0 1 1.266-.264c1.041.014 1.854.456 2.443 1.328.587.871.881 2.124.881 3.759-.013 1.676-.331 2.962-.952 3.86-.622.899-1.521 1.348-2.696 1.348-.405 0-.797-.06-1.175-.183a3.825 3.825 0 0 1-1.034-.506v4.135a.554.554 0 0 1-.06.152.184.184 0 0 1-.102.09l-.972.244c-.176.04-.29.044-.345.01-.054-.034-.074-.099-.06-.193zM456.833 170.071v-3.829c-.013-.068-.006-.122.021-.162a.19.19 0 0 1 .121-.082l.425-.103.67-.162a.363.363 0 0 0 .08-.009.33.33 0 0 1 .082-.011.1.1 0 0 1 .091.051.536.536 0 0 1 .05.131v4.176h.689c.352 0 .621-.085.811-.254.19-.169.338-.449.446-.841l.263-1.054c.149-.595.328-1.04.537-1.337.209-.298.482-.514.82-.648a4.85 4.85 0 0 1 .497-.133c.209-.047.382-.071.517-.071.08 0 .141.014.182.041a.195.195 0 0 1 .081.121l.223.914c.013.08.003.138-.031.17-.033.035-.112.058-.232.072l-.283.04a1.346 1.346 0 0 0-.416.121.57.57 0 0 0-.233.223c-.04.069-.085.167-.133.293a6.9 6.9 0 0 0-.151.478l-.223.81c-.136.474-.311.834-.528 1.085-.215.25-.486.421-.81.517.324.094.598.249.821.466.223.216.396.494.517.83l.628 1.946c.027.121.071.237.132.344.06.108.125.183.193.223a.587.587 0 0 0 .222.132c.095.035.215.058.365.071l.242.04c.149.028.231.062.244.102.013.041.013.1 0 .183l-.263.912a.753.753 0 0 1-.092.111c-.033.033-.098.05-.192.05a6.07 6.07 0 0 1-.709-.071 2.902 2.902 0 0 1-.526-.131 1.523 1.523 0 0 1-.659-.487c-.169-.215-.362-.716-.578-1.499l-.405-1.439c-.122-.391-.271-.669-.445-.831-.177-.163-.447-.244-.812-.244h-.709v4.256a.22.22 0 0 1-.071.122c-.033.026-.084.04-.152.04h-1.095c-.08 0-.138-.014-.17-.04-.035-.027-.052-.068-.052-.122v-4.256h-.709c-.378.014-.656.099-.831.254-.175.155-.317.43-.426.821l-.405 1.439c-.229.783-.428 1.284-.597 1.499-.17.217-.382.38-.638.487a4.604 4.604 0 0 1-.547.142c-.203.04-.434.06-.689.06-.108-.014-.181-.033-.213-.06a.218.218 0 0 1-.072-.101l-.263-.912c-.027-.083-.034-.142-.021-.183.014-.04.102-.074.263-.102l.244-.04c.134-.013.25-.036.344-.071a.834.834 0 0 0 .244-.132.74.74 0 0 0 .173-.223c.061-.107.111-.223.151-.344l.628-1.946c.108-.336.274-.614.497-.83.223-.217.504-.372.841-.466a1.68 1.68 0 0 1-.831-.517c-.215-.251-.384-.611-.507-1.085l-.223-.81c-.067-.19-.124-.347-.172-.478l-.11-.293a.768.768 0 0 0-.255-.223 1.321 1.321 0 0 0-.394-.121l-.284-.04c-.137-.014-.221-.037-.253-.072-.035-.032-.039-.09-.01-.17l.223-.914c0-.054.019-.094.061-.121.04-.027.108-.041.202-.041.121 0 .285.024.497.071.209.047.38.091.516.133.325.134.59.35.801.648.209.297.394.742.557 1.337l.263 1.054c.094.392.236.672.426.841.188.169.465.254.83.254h.689M467.471 171.326v4.256a.231.231 0 0 1-.07.122.252.252 0 0 1-.153.04h-1.095c-.08 0-.138-.014-.173-.04-.032-.027-.05-.068-.05-.122v-9.322c0-.067.01-.121.031-.162.019-.041.058-.067.112-.081l.405-.101.689-.163h.061a.173.173 0 0 0 .081-.02h.019a.196.196 0 0 1 .093.06c.02.029.036.061.05.102v4.176h.871c.351 0 .622-.085.81-.254.19-.169.338-.449.446-.841l.264-1.054c.148-.595.327-1.04.536-1.337.21-.298.484-.514.822-.648.122-.042.287-.086.496-.133.209-.047.382-.071.516-.071a.33.33 0 0 1 .183.041c.04.027.067.067.082.121l.221.914c.015.08.004.138-.029.17-.035.035-.111.058-.234.072l-.283.04a1.22 1.22 0 0 0-.405.121.67.67 0 0 0-.224.203 1.049 1.049 0 0 0-.15.294 5.799 5.799 0 0 0-.153.497l-.223.81c-.135.474-.312.834-.527 1.085-.217.25-.485.421-.81.517.325.094.597.249.82.466.223.216.396.494.517.83l.628 1.946c.026.121.071.237.132.344a.582.582 0 0 0 .192.223.6.6 0 0 0 .223.132c.094.035.217.058.365.071l.243.04c.149.028.229.062.243.102.013.041.013.1 0 .183l-.263.912a.897.897 0 0 1-.091.111c-.035.033-.1.05-.192.05-.271 0-.507-.02-.711-.06a3.61 3.61 0 0 1-.526-.142c-.27-.107-.49-.27-.659-.487-.168-.215-.362-.716-.577-1.499l-.405-1.439c-.121-.391-.271-.669-.446-.831-.176-.163-.447-.244-.81-.244h-.892M479.852 173.515V170.9h-.303c-1.081.015-1.932.208-2.554.58-.621.371-.924.914-.911 1.63 0 .514.135.919.405 1.217.27.296.621.445 1.053.445.324 0 .685-.105 1.085-.315a4.535 4.535 0 0 0 1.104-.821l.121-.121zm0-3.87v-.73c-.012-.662-.162-1.132-.445-1.409-.283-.276-.702-.415-1.256-.415-.352 0-.732.05-1.145.151a6.333 6.333 0 0 0-1.104.375 1.724 1.724 0 0 1-.244.111.243.243 0 0 1-.061.012.123.123 0 0 1-.111-.012.097.097 0 0 1-.051-.09l-.303-.81a.24.24 0 0 1 .02-.254c.053-.074.189-.158.404-.253a9.906 9.906 0 0 1 1.369-.426 6.208 6.208 0 0 1 1.408-.162c1 0 1.759.24 2.279.72.52.479.782 1.164.782 2.057v4.6c0 .244.019.507.059.791.041.282.102.506.183.668.027.081.067.183.122.303a.87.87 0 0 0 .162.265c.04.067.067.121.08.162 0 .027-.01.051-.03.07a.62.62 0 0 1-.09.072l-.853.527c-.108.054-.198.054-.273 0a1.13 1.13 0 0 1-.253-.324 2.768 2.768 0 0 1-.202-.365 6.434 6.434 0 0 1-.183-.547l-.02-.062-.081.082c-.499.5-.966.838-1.398 1.013a3.544 3.544 0 0 1-1.338.263c-.837-.014-1.506-.269-2.007-.77-.499-.499-.743-1.195-.728-2.087 0-.852.248-1.551.749-2.098.5-.547 1.203-.929 2.108-1.145.31-.067.678-.132 1.104-.192a7.564 7.564 0 0 1 1.024-.091h.323" fill="#115A5C"/><path d="m105.855 126.838-.896-1.175 6.85-3.941 8.386-1.143-1.037 3.069-13.303 3.19" fill="#1766B5"/></svg>